/* XPM */
static char *result[] = {
/* columns rows colors chars-per-pixel */
"50 50 98 2 ",
"   c #6AB48D",
".  c #70B087",
"X  c #B8CAB6",
"o  c #C6C5C7",
"O  c #DDDDDD",
"+  c #CECECE",
"@  c #76B493",
"#  c #6AB18B",
"$  c #A49A5A",
"%  c #F9DCAF",
"&  c #7E7B85",
"*  c white",
"=  c #FDFDFD",
"-  c #C3C9C6",
";  c #71B290",
":  c #6AAF89",
">  c #A29C5D",
",  c #F6AA37",
"<  c #FEDFAE",
"1  c #DAD9DC",
"2  c #F9F9F9",
"3  c #82BD9E",
"4  c #7F9F72",
"5  c #B88941",
"6  c #BA8A40",
"7  c #BAA78A",
"8  c #F1F1F1",
"9  c #A6CAB7",
"0  c gray97",
"q  c #6CB48E",
"w  c #BBC6C0",
"e  c #B4C2BB",
"r  c #7DBC9B",
"t  c #E5E8E6",
"y  c #BCC8C2",
"u  c #72B08F",
"i  c #95B9A6",
"p  c gray89",
"a  c #84B49B",
"s  c #A0CFB6",
"d  c #E7F3ED",
"f  c #70B490",
"g  c #CDE5D8",
"h  c #73B894",
"j  c #8DBAA2",
"k  c gray98",
"l  c #F4F4F4",
"z  c gray99",
"x  c #CFD8D3",
"c  c #B1C0B8",
"v  c #6BAD8A",
"b  c #8FBBA4",
"n  c #FEFEFE",
"m  c #F3F3F3",
"M  c gray95",
"N  c #C8C8C8",
"B  c gray96",
"V  c #C5CBC8",
"C  c #86B29B",
"Z  c #F6F6F6",
"A  c #C0CCC6",
"S  c #73B491",
"D  c #C3E1D1",
"F  c gray94",
"G  c #F8F8F8",
"H  c #C8E0D4",
"J  c #C0DDCE",
"K  c #6BA888",
"L  c #80B89B",
"P  c #CFD7D3",
"I  c #F1F2F2",
"U  c #F9C099",
"Y  c #FCF6F1",
"T  c #E3E5E4",
"R  c #BDC8C2",
"E  c #8AB69F",
"W  c #6DB18D",
"Q  c #6BAE8A",
"!  c #8CB09D",
"~  c #ADCABB",
"^  c #BBBFAC",
"/  c #CFAD96",
"(  c #D58954",
")  c #ADBCAB",
"_  c #79AF92",
"`  c #6AB08B",
"'  c #82946B",
"]  c #A5653A",
"[  c #B56F3B",
"{  c #6C9B7B",
"}  c #81986F",
"|  c #AE7C46",
" . c #C66C30",
".. c #CF7030",
"X. c #8D855C",
"o. c #83A376",
"O. c #A29B62",
"+. c #8F9E6D",
/* pixels */
"                                                                                                    ",
"                                                                                                    ",
"                                                                                                    ",
"                                                                                                    ",
"                                                                                                    ",
"                                                                                                    ",
"                                                                                                    ",
"                                                                                                    ",
"                                                                                                    ",
"                                                                                                    ",
"                                                                                                    ",
"                                                                                                    ",
"                                                                                                    ",
"                                  . X o O + @                                                       ",
"                                # $ % & * = - ;                                                     ",
"                              : > , < 1 * * 2 3                                                     ",
"                              4 5 6 7 8 * * 2 3                                                     ",
"                              #       9 0 * 2 3                                                     ",
"                                      q w * 2 3                                                     ",
"                                        e * 2 3                                                     ",
"                                        e * 2 3                                                     ",
"                                      r t * = y u                                                   ",
"                                      i * * * p a                                                   ",
"                                    s 8 * * * * d a u                                               ",
"                                  f g * * * * * * p y 3 3 h                                         ",
"                                  j = * * * * * k l z 2 2 x e c v                                   ",
"                                  b * * * * * 2 l n * * * * * n m M N                               ",
"                                  b * * * * k B n * * * * * * * * V @                               ",
"                                  C 8 * * * Z 8 2 k z * * * * * A S                                 ",
"                                    D * * * * z M F M Z * G H J K                                   ",
"                                    L P I * * * * U Y T R E W                                       ",
"                                      Q ! ~ ~ ^ / ( ) _ `                                           ",
"                                              ' ] [ {                                               ",
"                                            } |  ...X.                                              ",
"                                            o.O.O.O.+.                                              ",
"                                                                                                    ",
"                                                                                                    ",
"                                                                                                    ",
"                                                                                                    ",
"                                                                                                    ",
"                                                                                                    ",
"                                                                                                    ",
"                                                                                                    ",
"                                                                                                    ",
"                                                                                                    ",
"                                                                                                    ",
"                                                                                                    ",
"                                                                                                    ",
"                                                                                                    ",
"                                                                                                    "
};
