/* XPM */
static char *result[] = {
/* columns rows colors chars-per-pixel */
"50 50 201 2 ",
"   c #050505",
".  c #0C0C0C",
"X  c #070905",
"o  c #141A0D",
"O  c #131313",
"+  c #1B1B1B",
"@  c #171B13",
"#  c #0D1108",
"$  c #1C2514",
"%  c #242E1A",
"&  c #202C15",
"*  c #263519",
"=  c #211F21",
"-  c #242424",
";  c #2A2A2A",
":  c #2B262E",
">  c #343434",
",  c #393232",
"<  c #3C3C3C",
"1  c #373D35",
"2  c #333533",
"3  c #443535",
"4  c #304818",
"5  c #384928",
"6  c #3B5226",
"7  c #3B443B",
"8  c #344034",
"9  c #78781D",
"0  c #435B2B",
"q  c #44493C",
"w  c #535339",
"e  c #5F5F2A",
"r  c #49682B",
"t  c #4F742A",
"y  c #51752E",
"u  c #49653A",
"i  c #516A37",
"p  c #567636",
"a  c #5B632A",
"s  c #6E7224",
"d  c #4A314A",
"f  c #553355",
"g  c #733473",
"h  c #207878",
"j  c #444444",
"k  c #4B4C4B",
"l  c #444D48",
"z  c #4E5A4E",
"x  c #4B5947",
"c  c #495353",
"v  c #525252",
"b  c #5B5B5B",
"n  c #515F50",
"m  c #505252",
"M  c #486546",
"N  c #516249",
"B  c #5E7746",
"V  c #5B645B",
"C  c #586655",
"Z  c #4F734E",
"A  c #724372",
"S  c #646464",
"D  c #6C6C6C",
"F  c #656A65",
"G  c #687968",
"H  c #737473",
"J  c #7A7A7A",
"K  c #737A73",
"L  c #717F6C",
"P  c #995656",
"I  c #8C554A",
"U  c #AA5A5A",
"Y  c #BA664C",
"T  c #C76363",
"R  c #D77B7B",
"E  c #EC6E6E",
"W  c #3F893B",
"Q  c #349C33",
"!  c #2EB52D",
"~  c #42823E",
"^  c #5D803A",
"/  c #628D38",
"(  c #649433",
")  c #6EA13B",
"_  c #19EB15",
"`  c #2EC627",
"'  c #31D230",
"]  c #2BFD29",
"[  c #31E631",
"{  c #678D42",
"}  c #71964B",
"|  c #709252",
" . c #7CAE4B",
".. c #7CA653",
"X. c #7EB04D",
"o. c #6B886B",
"O. c #748373",
"+. c #7B8E7B",
"@. c #7B8578",
"#. c #7F957E",
"$. c #4BFF4B",
"%. c #6AFF6A",
"&. c #828A1B",
"*. c #989A0F",
"=. c #9FA310",
"-. c #B1B20C",
";. c #858521",
":. c #C9C902",
">. c #D6D70F",
",. c #CBCC10",
"<. c #E3E302",
"1. c #83A75F",
"2. c #85B456",
"3. c #88AD63",
"4. c #8CB266",
"5. c #91C45E",
"6. c #97C569",
"7. c #9FD16C",
"8. c #A6D776",
"9. c #A3CD7A",
"0. c #874C87",
"q. c #B452B4",
"w. c #AF4DAF",
"e. c #DC5ADC",
"r. c #E357E3",
"t. c #FF64FF",
"y. c #1A9B9B",
"u. c #2A9090",
"i. c #19B7B7",
"p. c #0FB4B4",
"a. c #29A8A8",
"s. c #6AB48D",
"d. c #77B997",
"f. c #6FB590",
"g. c #0AD2D2",
"h. c #2AD7D7",
"j. c #36E8E8",
"k. c #35F1F1",
"l. c #4AFAFA",
"z. c #828382",
"x. c #8C8C8C",
"c. c #858B84",
"v. c #9E9E8F",
"b. c #949494",
"n. c #9A9D94",
"m. c #9B9B9B",
"M. c #949E94",
"N. c #869087",
"B. c #88A987",
"V. c #8FBF8C",
"C. c #9BB69B",
"Z. c #92A292",
"A. c #A3A3A3",
"S. c #ACACAC",
"D. c #B6B6B6",
"F. c #BBBBBB",
"G. c #ACB8AC",
"H. c #ED8A8A",
"J. c #FC9797",
"K. c #FFA8A8",
"L. c #FFB7B7",
"P. c #9CC69B",
"I. c #ABD383",
"U. c #84FF84",
"Y. c #B7E985",
"T. c #94C4AB",
"R. c #9EC7B1",
"E. c #88C0A3",
"W. c #A3CDA3",
"Q. c #A7C7A7",
"!. c #A4D3A4",
"~. c #ABD5AB",
"^. c #A8D5A7",
"/. c #ABCCBB",
"(. c #B3D4B3",
"). c #B2DAB2",
"_. c #BBDCBB",
"`. c #B2CEBF",
"'. c #B8E2B8",
"]. c #CCFF99",
"[. c #C6F893",
"{. c #9797DC",
"}. c #A9A9DA",
"|. c #9E9EFF",
" X c #8989E2",
".X c #B0B0F6",
"XX c #FE81FE",
"oX c #FE96FE",
"OX c #FFA7FF",
"+X c #BCD1C6",
"@X c #B2CED1",
"#X c #C3C3C3",
"$X c #CBCBCB",
"%X c #C6D8C7",
"&X c #D2D3D3",
"*X c #C3E4C3",
"=X c #CAECCA",
"-X c #C7EBC7",
";X c #CCF3CC",
":X c #D2F8D2",
">X c #C9C9FB",
/* pixels */
"s.s.s.s.s.s.s.s.s.s.s.s.s.s.s.s.s.s.s.s.s.s.s.s.s.s.s.s.s.s.s.s.s.s.s.s.s.s.s.s.s.s.s.s.s.s.s.s.s.s.",
"s.s.s.s.s.s.s.s.s.s.s.s.s.s.s.s.s.s.s.s.s.s.s.s.s.s.s.s.s.s.s.s.s.s.s.s.s.s.s.s.s.s.s.s.s.s.s.s.s.s.",
"s.s.s.s.s.s.s.s.s.s.s.s.s.s.s.s.s.s.s.s.s.s.s.s.s.s.s.s.s.s.s.s.s.s.s.s.s.s.s.s.s.s.s.s.s.s.s.s.s.s.",
"s.s.s.s.s.s.s.s.s.s.s.s.s.s.s.s.s.s.s.s.s.s.s.s.s.s.s.s.s.s.s.s.s.s.s.s.s.s.s.s.s.s.s.s.s.s.s.s.s.s.",
"s.s.s.s.s.s.s.s.s.s.s.s.s.s.s.s.s.s.s.s.s.s.s.s.s.s.s.s.s.s.s.s.s.s.s.s.s.s.s.s.s.s.s.s.s.s.s.s.s.s.",
"s.s.s.s.s.s.s.s.s.s.s.s.s.s.s.s.s.s.s.s.s.s.s.s.s.s.s.s.s.s.s.s.s.s.s.s.s.s.s.s.s.s.s.s.s.s.s.s.s.s.",
"s.s.s.s.s.s.s.s.s.s.s.s.s.s.s.s.s.s.s.s.s.s.s.s.s.s.s.s.s.s.s.s.s.s.s.s.s.s.s.s.s.s.s.s.s.s.s.s.s.s.",
"s.s.s.s.s.s.s.s.s.s.s.s.s.s.s.s.s.s.s.s.s.s.s.s.s.s.s.s.s.s.s.s.s.s.s.s.s.s.s.s.s.s.s.s.s.s.s.s.s.s.",
"s.s.s.s.s.s.s.s.s.s.s.s.s.s.s.s.s.s.s.s.s.s.s.s.s.s.s.s.s.s.s.s.s.s.s.s.s.s.s.s.s.s.s.s.s.s.s.s.s.s.",
"s.s.s.s.s.s.s.s.s.s.s.s.s.s.s.s.s.s.s.s.m.m.m.m.m.m.m.m.R.s.s.s.s.s.s.s.s.s.s.s.s.s.s.s.s.s.s.s.s.s.",
"s.s.s.s.s.s.s.s.s.s.s.s.s.s.f.s.s.$XA.M.j 7 7 7 7 1 1 1 c.A.+Xs.f.#.s.s.s.s.s.s.s.s.s.s.s.s.s.s.s.s.",
"s.s.s.s.s.s.s.s.s.s.s.s.s.s.s.$XF.D 8 z ;X-X(.C.C.C.^.Q.x % b F.}.s.s.s.s.s.s.s.s.s.s.s.s.s.s.s.s.s.",
"s.s.s.s.s.s.s.s.s.s.s.s.s.s.s.j + +.*X-X;X;Xn & + 2 P.~.P.V.G + ; +Xs.s.s.s.s.s.s.s.s.s.s.s.s.s.s.s.",
"s.s.s.s.s.s.s.s.s.s.s.s.s.s.. (.;X:X:X_.O O 4.Y.7.2.+ . 3.Q.R.R.P.- +Xs.s.s.s.s.s.s.s.s.s.s.s.s.s.s.",
"s.s.s.s.s.s.s.s.s.s.s.s.#Xk Q.-X:X:XC.x 8.I.[.[.8.8...{ 7 1.).^.P.B.b S.s.s.s.s.s.s.s.s.s.s.s.s.s.s.",
"s.s.s.s.s.s.s.s.s.s.s.s.D.@ -X=X:XC.o.1.].].].].Y.8.5. .i N +.~.!.!.8 x.s.s.s.s.s.s.s.s.s.s.s.s.s.s.",
"s.s.s.s.s.s.s.s.s.s.s.#Xs.C =X=X-XO.i Y.3.3.Y.[.Y.9./ p / 4 z (.~.^.G K D.s.s.s.s.s.s.s.s.s.s.s.s.s.",
"s.s.s.s.s.s.s.s.s.s.s.H 3 '.'.=X-Xo.w 9.  * 4.Y.8.3.* X y 4 z _.).~.!.M V s.s.s.s.s.s.s.s.s.s.s.s.s.",
"s.s.s.s.s.s.s.s.s.s.s.H 3 _.'.*X=XJ u 4.@ I.6 p ..$ } $ r 6 V _.'.).~.C V s.s.s.s.s.s.s.s.s.s.s.s.s.",
"s.s.s.s.s.s.s.s.s.s.b G P.(.).%X&X$X1.5 6.% . p } X o t * O.(._.).).~.P.o.v s.s.s.s.s.s.s.s.s.s.s.s.",
"s.s.s.s.s.s.s.s.s.s.< V ^.R.8 q M.+XN.$ 6.} | ..X.p t ( & 1.$XG.7 8 B.!.o.> s.s.s.s.s.s.s.s.s.s.s.s.",
"s.s.s.s.s.s.s.s.s.s.7 C B.N 1./ B M.G.@.r X.2./ y ) ( 6 o.Q.C.C ^ 0 N B.o.> s.s.s.s.s.s.s.s.s.s.s.s.",
"s.s.s.s.s.s.d.c.c.c.- 1 x # | B - 7 K D   0 0 * @ 6 6 # V O.c # i 0 o 7 l + c.x.x.$Xs.s.s.s.s.s.s.s.",
"s.s.s.s.s.+XA.< < 7 d 7 d 7 < < 7 < > > ; > > ; ; ; ; ; ; - - - = $ - + + + O @ O J $Xs.s.s.s.s.s.s.",
"s.s.s.s.E.z.- A.S.S.S.S.S.S.S.m.m.b.x.x.z.z.J J H H H D F S S b b v b v j k d q < @ c @Xs.s.s.s.s.s.",
"s.s.s.f.b O   O . O . O O O O . O O O . . . . . . . . . . . .   . X X X               < s.s.s.s.s.s.",
"s.s.s.j > < < < j j j l j l q 7 < < < < > > > > ; > ; ; ; - = - - - - - = @ O + O O + + j T.s.s.s.s.",
"s./.b > u.a.u.k k m v k Z ` ` x k j j j < &.&.a > > > > 2 I Y P ; ; ; ; - d q.q.d + + + + c }.E.s.s.",
"s.&X+ h h.k.h.u.c m v Z ' $.$.! M j j w 9 :.:.=.a > > > I R J.H.P , - - f w.XXXXw.f + + + O {..X@Xs.",
"s.$X= p.j.l.l.g.c m v ! ] U.U._ W l j w -.<.<.,.;.> > > T J.L.K.E 3 ; ; 0.t.OXoXt.g + + O O }.|.>Xs.",
"s.$X+ y.j.l.k.i.c m v Q [ %.%.[ Z k j w *.,.>.-.s > > > U H.K.J.T 3 ; ; A e.oXoXe.g + + + O }..X>Xs.",
"f.&X; > y.g.i.c m v v v ~ _ _ u l j j 7 j =.=.s < > > 2 1 P E T 2 ; - ; ; f r.r.d = + + O :  X@Xs.s.",
"s.s.&X; 2 l k k k k m m m v x k k j j j < q q q > > > > > > , > : ; : - - = : : = + + + - #Xs.s.s.s.",
"s.s.s.#Xk o O O O O O O O O O O O O . O . . . . . . . . .     .     X X X   X       X - #Xs.s.s.s.s.",
"s.s.s.s.#XV @ H K P s.d - J J H H D j O b b b v v k . < k k k >   > < < > > : . - O d G.s.s.s.s.s.s.",
"s.s.s.s.f.}.D H 1.}.$Xb.D z.#XF.F.S.D = b.b.m.b.J v j D J J S 3 > S F b v j ;   - v A.s.s.s.s.s.s.s.",
"s.s.s.s.s.s.&X; > x.S.F.A.< A.D.F.S.D = m.b.b.x.S O z.J J J k O S F S b m >   - - S.s.s.s.s.s.s.s.s.",
"s.s.s.s.s.s.s.s.R.>   F #XF.  A.F.S.H - b.b.m.b.S O z.J J H m + S S S b >   O +Xs.s.s.s.s.s.s.s.s.s.",
"s.s.s.s.s.s.s.s.s.f.+XJ ; : @ O J A.A.x.. x.n.x.b O 0.@.J < ; V b ; - = S /.T.s.s.s.s.s.s.s.s.s.s.s.",
"s.s.s.s.s.s.s.s.s.s.s./.#X$X$X- - ; S b.  x.b.x.S O #.+.J > . + ; D.$X$X+Xs.s.s.s.s.s.s.s.s.s.s.s.s.",
"s.s.s.s.s.s.s.s.s.s.s.s.s.s.s.#XD.D.J ;   ; ; ; +   : - - H D.D.F.s.s.s.s.s.s.s.s.s.s.s.s.s.s.s.s.s.",
"s.s.s.s.s.s.s.s.s.s.s.s.s.s.s.s.s.s.&Xm.n.n.n.v.n.v.n.M.n.$Xs.s.s.s.s.s.s.s.s.s.s.s.s.s.s.s.s.s.s.s.",
"s.s.s.s.s.s.s.s.s.s.s.s.s.s.s.s.s.s.s.s.s.s.s.s.s.s.s.s.s.s.s.s.s.s.s.s.s.s.s.s.s.s.s.s.s.s.s.s.s.s.",
"s.s.s.s.s.s.s.s.s.s.s.s.s.s.s.s.s.s.s.s.s.s.s.s.s.s.s.s.s.s.s.s.s.s.s.s.s.s.s.s.s.s.s.s.s.s.s.s.s.s.",
"s.s.s.s.s.s.s.s.s.s.s.s.s.s.s.s.s.s.s.s.s.s.s.s.s.s.s.s.s.s.s.s.s.s.s.s.s.s.s.s.s.s.s.s.s.s.s.s.s.s.",
"s.s.s.s.s.s.s.s.s.s.s.s.s.s.s.s.s.s.s.s.s.s.s.s.s.s.s.s.s.s.s.s.s.s.s.s.s.s.s.s.s.s.s.s.s.s.s.s.s.s.",
"s.s.s.s.s.s.s.s.s.s.s.s.s.s.s.s.s.s.s.s.s.s.s.s.s.s.s.s.s.s.s.s.s.s.s.s.s.s.s.s.s.s.s.s.s.s.s.s.s.s.",
"s.s.s.s.s.s.s.s.s.s.s.s.s.s.s.s.s.s.s.s.s.s.s.s.s.s.s.s.s.s.s.s.s.s.s.s.s.s.s.s.s.s.s.s.s.s.s.s.s.s.",
"s.s.s.s.s.s.s.s.s.s.s.s.s.s.s.s.s.s.s.s.s.s.s.s.s.s.s.s.s.s.s.s.s.s.s.s.s.s.s.s.s.s.s.s.s.s.s.s.s.s.",
"s.s.s.s.s.s.s.s.s.s.s.s.s.s.s.s.s.s.s.s.s.s.s.s.s.s.s.s.s.s.s.s.s.s.s.s.s.s.s.s.s.s.s.s.s.s.s.s.s.s."
};
