/* XPM */
static char *_64869e5da61471e92a60144f02da2063s3uvpRS5U2b8RVS[] = {
/* columns rows colors chars-per-pixel */
"50 50 248 2 ",
"   c #020202",
".  c #090603",
"X  c #050D05",
"o  c #0A0A08",
"O  c #110C06",
"+  c #140D09",
"@  c #041405",
"#  c #051A0A",
"$  c #15120B",
"%  c #1D130B",
"&  c #1A180A",
"*  c #191715",
"=  c #0B161B",
"-  c #23140C",
";  c #241A0E",
":  c #2B180D",
">  c #341D0F",
",  c #2B1A12",
"<  c #281712",
"1  c #341E16",
"2  c #0A2D09",
"3  c #06240B",
"4  c #19270E",
"5  c #0B3D0C",
"6  c #0A320A",
"7  c #0C3915",
"8  c #27220E",
"9  c #2C2212",
"0  c #2A2618",
"q  c #332513",
"w  c #3A2A16",
"e  c #3A2615",
"r  c #323009",
"t  c #0F1B25",
"y  c #14292C",
"u  c #232C37",
"i  c #44261E",
"p  c #4B2B1D",
"a  c #462B17",
"s  c #49361B",
"d  c #54361C",
"f  c #542F18",
"g  c #683A1D",
"h  c #733E1F",
"j  c #4C2A21",
"k  c #472720",
"l  c #593F22",
"z  c #4B382B",
"x  c #6A3D21",
"c  c #663B22",
"v  c #713E21",
"b  c #0D430D",
"n  c #0B4512",
"m  c #0E4C12",
"M  c #0B4C1C",
"N  c #184A14",
"B  c #0E5416",
"V  c #0D5B1B",
"C  c #0B541C",
"Z  c #1A5C14",
"A  c #175516",
"S  c #11440D",
"D  c #2B491C",
"F  c #295518",
"G  c #196419",
"H  c #0F631E",
"J  c #246A1A",
"K  c #2D7A1E",
"L  c #30791E",
"P  c #347718",
"I  c #2F5421",
"U  c #0E6B23",
"Y  c #176A22",
"T  c #0F7426",
"R  c #0E7A29",
"E  c #0C7727",
"W  c #117426",
"Q  c #107B29",
"!  c #197829",
"~  c #277428",
"^  c #0D5E20",
"/  c #73411F",
"(  c #7E521C",
")  c #5C4322",
"_  c #594B23",
"`  c #4E5423",
"'  c #544B31",
"]  c #624424",
"[  c #684A24",
"{  c #744221",
"}  c #7B4927",
"|  c #6D5124",
" . c #76562B",
".. c #665536",
"X. c #54712B",
"o. c #717332",
"O. c #1B2D40",
"+. c #2C4C6D",
"@. c #3A526A",
"#. c #355271",
"$. c #307C42",
"%. c #524F4E",
"&. c #7A674D",
"*. c #515369",
"=. c #606161",
"-. c #695844",
";. c #84581D",
":. c #916A1B",
">. c #88562B",
",. c #865D31",
"<. c #925F2E",
"1. c #846232",
"2. c #8C6233",
"3. c #8E6837",
"4. c #946C36",
"5. c #986735",
"6. c #997439",
"7. c #8A642B",
"8. c #A4733B",
"9. c #A57B3C",
"0. c #AA7D3E",
"q. c #A8773A",
"w. c #B37C3E",
"e. c #A46B3A",
"r. c #976B46",
"t. c #92754E",
"y. c #A57B43",
"u. c #AA7D43",
"i. c #A77644",
"p. c #B57E43",
"a. c #13812A",
"s. c #1B8329",
"d. c #1D8629",
"f. c #248B29",
"g. c #338A22",
"h. c #2C9129",
"j. c #399827",
"k. c #24873C",
"l. c #3EA029",
"z. c #2F821F",
"x. c #6DAF1B",
"c. c #4E8C27",
"v. c #588234",
"b. c #4D9627",
"n. c #759C35",
"m. c #6D8831",
"M. c #41A429",
"N. c #44A92A",
"B. c #4DAA2C",
"V. c #4BA626",
"C. c #5AA530",
"Z. c #68AE2A",
"A. c #55A41F",
"S. c #7FC41C",
"D. c #538E55",
"F. c #5BA36E",
"G. c #B4B50A",
"H. c #A3833A",
"J. c #B89536",
"K. c #B08030",
"L. c #92AB28",
"P. c #CCB615",
"I. c #C9AB2B",
"U. c #D2B730",
"Y. c #C09B3A",
"T. c #8CC718",
"R. c #ABC610",
"E. c #DDD407",
"W. c #DAC71B",
"Q. c #DACB0F",
"!. c #E4D612",
"~. c #DBE80E",
"^. c #EDE40E",
"/. c #F6EE0D",
"(. c #FDFB02",
"). c #F8F308",
"_. c #F6EB13",
"`. c #F5E816",
"'. c #E3ED0B",
"]. c #F1D827",
"[. c #E8C538",
"{. c #EACF2D",
"}. c #DAC227",
"|. c #969542",
" X c #AD8142",
".X c #A98A43",
"XX c #B28443",
"oX c #BE8342",
"OX c #BD8B45",
"+X c #BB8647",
"@X c #AF8E57",
"#X c #9A8163",
"$X c #8B9E6A",
"%X c #989473",
"&X c #BB9666",
"*X c #B39572",
"=X c #9CA476",
"-X c #A5B068",
";X c #C08543",
":X c #C28C46",
">X c #C4874B",
",X c #C48C49",
"<X c #C49147",
"1X c #C49048",
"2X c #C99B4A",
"3X c #D19E4E",
"4X c #CCA449",
"5X c #DEB249",
"6X c #DDAB52",
"7X c #D8A754",
"8X c #D3AE49",
"9X c #E4BB44",
"0X c #E1B649",
"qX c #E4B352",
"wX c #E3AC57",
"eX c #C3A47D",
"rX c #CBA978",
"tX c #D1AC7A",
"yX c #C09C71",
"uX c #3E5A9A",
"iX c #395AA3",
"pX c #5D6D98",
"aX c #58658C",
"sX c #2D879C",
"dX c #14A5D6",
"fX c #8D8C8E",
"gX c #A9ACB0",
"hX c #A2B383",
"jX c #D5B48C",
"kX c #D9B68C",
"lX c #DBBB92",
"zX c #CFAE86",
"xX c #E1BE91",
"cX c #E4C69D",
"vX c #D1CEB5",
"bX c #E7CCA3",
"nX c #EAD2A7",
"mX c #F5DCB3",
"MX c #EBDAB2",
"NX c #FCE5BC",
"BX c #F4E8A9",
"VX c #8FA1C9",
"CX c #BECBD1",
"ZX c #FDECC4",
"AX c #FDEED5",
"SX c #FAFBFA",
"DX c #EEEDEB",
"FX c #CBDCD4",
/* pixels */
">X,X<X<X<X<X>X<X<X1X,X<X,X>X1X1X1X,XOXv.v.n.n.n.n.n.n.m.X.` X.m.o.<.e.p.XX>X,X<X<X,X,X<X<X,X,X<X<X<X",
">X,X<X,X>X,X<X<X,X>X,X,X1X<X>X,X1X1X.Xa.s.M.B.B.B.B.B.M.F S ! s.L { 5.u.u.;XoX:X:X1X,X<X,X1X<X<X;X:X",
"1X<X<X:X;X:X<X>X>X>X>X;X;XOX|.v.v.X.v.h.h.j.M.M.M.j.I J K K T.R.G.P.I.2X2X3X3XOXXXOX,X,X>X>X,X;X;X;X",
",X1X<X;X:X,X,X>X>X>X>X>XoXXXo.! a.Q s.M.M.M.M.N.M.g.n A j.l.~.(.(.(.{.qX6X6X7X+Xy.OX>X>X>X:X;XoX:X:X",
"<X,X<X:X,X<X<X>XOX+X.X6..X|.m.d.s.a.s.M.M.M.M.j.j.g.N J b.C.~._._./.].9X9X9X5X<XXXOX>XOX>X;X;X;X,X,X",
">X<X,X;X:X<X<X<XOXH.F 5 U a.f.M.N.N.M.M.M.M.N.Z 5 A B.C.8X6X7X6X6X6X].).(.(.).[.wX@Xu.u.;X;X:X,X,X<X",
"<X<X;X;X>X<X<XOXH.3.F m T Q f.l.M.M.M.M.M.M.N.Z b Z N.Z.8X9X0X9X5X3X{._.)./.`.[.9XY.J.J.OXOX,X,X<X<X",
"<X<X>X>X>X:X:XH.F F Y U R Q f.M.M.M.M.M.M.l.N.Z b Z N.Z.'._._.`.}.XX4X9X9X9X[.]._.^.^.W.u.XX,X>X,X,X",
"<X,X>X>X>X,X>X6.S B W Q R Q f.M.M.M.M.M.N.N.N.Z 5 Z N.Z.).(.(.).W.y.2X6XqX6X0X`.(.(.(.!.u.XX<X>X:X<X",
"<X>X,X<X1X) 9 8 b B T Q Q Q a.d.G Z Z Z Z g.N.Z b Z l.Z.U.9X).).W.y.3.>.<.6XqX0X9X_.(.^.u.H.<X>X>X<X",
"<X,X>X<X:Xw   X b B T R R Q R R V b b b S z.M.G b Z B.Z.4X6X_./.}.y.,.v } 6X6X6X7X`.).!.u.u.>X>X>X<X",
",X1X<X:X,Xw   @ B V W Q Q Q Q R H B B G G K z.J Z P S.L.8X6X!.W.U.@Xi.r.r.2X2X4X2XU.P.P.u.XX,X,X,X,X",
">X>X<X:X,Xw   3 a.Q Q Q Q R Q Q a.R a.M.l.G 5 g.l.S.(._.qX6X.Xt.@XjXjXjXzXy. Xy.u.} { >.<X<X,X<X,X>X",
">X>X1X,X1Xw   # a.Q Q R Q Q Q Q Q Q a.h.f.Z 5 K h.A.(._.0XqXyX&XrXbXlXlXeX_ [ 4.XXe.5.e.,X<X,X,X<X<X",
",X>X1X1X1Xw   # a.R Q Q Q Q Q R Q a.Q a.Q A b H a.V.(._.0X6XtXtXcXNXbXlXeX& 9 3.>X+Xp.oX,X<X,X,X,X:X",
"1X,X,XXXXXw X 3 a.Q Q Q Q R Q Q Q T T T W B b ! ! b.).`.9X9XkXlXbXMXlXjX*X  % 1.:X>X>X>X<X<X<X<X;X:X",
"1X<X,Xw O 6 b m Q Q Q Q Q Q Q Q V n b b n U E |.qX4XH.J.).(.BXMX%X+ j { x   $ 1.OX1X<X<X<X<X<X,X;X;X",
"1X1X1Xq X 2 b m Q Q Q Q R W R R G A D N A Y ! |.7X3Xy.J.^.).BXMX%X< k x c * 1 ,.u.oX:X<X<X:X:X<X:X,X",
"1X<X,Xq . 2 b m a.R Q Q V B V B D.$X=X=X=X$X$Xy.5.0.2X2XI.I.BXNXvXfXaX*.*.&.&.' d 8.oX,X<X;X;X<X:X<X",
"<X<X1Xq . 6 b B R R Q Q m b b b $XMXZXZXNXcXlX,.{ >.wX3X Xi.nXZXAXSXVXiXuXlXzXz . 2.w.<X<X<X:X<X:X,X",
"<X<X<X4.2.0 @ 2 a.T B B 3 @ @ @ -.@XrXNXNXmXNXr.{ :.`.P.7.>.nXZXAXSXVXiXuXzX*X'   3.:X<X<X<X<X<X>X,X",
"<X1X,X+X+Xw X # a.T m b X       _ y.@XZXNXNXZXt.v :.(.Q.;./ bXZXAXSXVXiXuXjXzXz   3.OX<X<X,X<X<X<X<X",
"1X<X,X>X>Xw   # W V 5 6 9 9 &   s  .r.bXcXvXFX#X<.q.(.E.;./ bXZXAXSXgXpXaX%X#X' q 6.OX,X>X>X,X<X<X,X",
"<X<X<X,X>Xa   @ b 6 X   8.K. .O   X O 6.|.dXdXhXqX[.(.E.;./ bXZXNXZXbXxXeX. % 1.<X>X<X>X>X>X>X,X,X<X",
"<X<X<X<X<Xd 9 8 5 4 8 ; 8.XX7.r r 8 w 1.-.sXdX-X9X}.E.P.<.,.cXmXmXmXjXfXu.1 w 3.,X>X1X<X,X1X,X>X,X<X",
"<X<X,X<X<XXX0.1.X q 3.i.;X<XI.E.I.2X.X$ $ = = G./.Q.;.4.yXrXjXlXlXlX&.0 0 u. XOX<X1X1X<X<X1X1X>X,X>X",
"<X1X1X<X<X<XOX4.  q 9.:X>X<XU.(.].9X2X        G.(.Q.v 2.zXkXlXlXjXlX-.* < OX1XOX<X<X<X<X<X<X<X<X<X>X",
"<X,X<X<X<XoXOXOX6.0.OX1X<XOX:.r r q 0 U H 3   H.9XJ.+ ; D I I I D 0 $     < w 2.oX;X;X:X1X<X<X<X<X,X",
"<X<X<X,X<X;X;X<X:X:X:X<X<X.X .O O O # Q U 3   t.7XH.  @ 5 b b 5 3     o X . -  .w.oX;X;X<X<X>X,X<X1X",
"<X<X:X;X:X<X<X<X:X;X;X1X1XOX4.d s d s M M #   o.|.o.  @ m A b 5 2   = t t : e c } u.>X,X,X1X<X1X<X1X",
"<X<X,X;X:X1X<X,X>XoXoXoX>X:X,X1XOXOX0.    o o C E U . 3 U a.m 5 3   O.+.@.{ x -   <.+X,X<X<X1X<X<X,X",
"<X<X<X<X<X<X>X;XoX;X:X:X>XoX>X1X3.| d   o %.fX$.E U e 0 W R H V C M y u u { c <   2.;X<X<X,X>X<X<X<X",
";X;X<X:X<X>X>X;X>X,X1X1X1X<X>X,X] - O   = gXDXD.E Y v _ ! ! Q W E E 7 X O { g :   2.>X1X1X1X>X1X<X<X",
":X:X<X,X<X>X>X>X>X>X1X1X1X<X>XK.l +   o * gXDXF.k.$.x _ ! Q Q Q s.f.n # $ g g : O 2.K.:X1X1X1X1X>X,X",
"<X<X<X<X<X,X>X>X>X1X1X1X:X0. .O     o +.+.#.#.CXSXgX  3 U Q R d.x.(.T.B.g.  ;  .OX<X:X:X>X<X1X1X>X,X",
"<X<X<X<X<X<X<X<X<X<X1X1X8.5.] X . + * @.@.#.+.gXFXgXO 4 Y ! Y K x.'.T.B.j.  % 1.OX<X<X<X;X;X1X1X<X:X",
"<X<X;X;X<X<X<X<X<X<X<X,X] a 9   < i p ' ' @.#.=.=.%.a f ` ` ` ` X.T.x.N.j.X % 1.OX:X:X<X:X;X<X<X<X,X",
"<X<X:X;X<X<X,X>X<X<X<X,X;   . O j v >.v x @.+.t @ 8 | | | [ [ | X.V.l.l.g.  $ | 0.0.8.0.<X,X>X,X,X,X",
"<X<X<X<X<X,X>X>X<X<X<X,X; . - f t.*X&X{ g 1 t M ^ Y c.c.c.c.c.c.b.M.h.d.!     ; q q q l <X,X>X,X<X<X",
"<X<X<X<X<X<X<X<X,X:X<X,X; . > h u.zXzX{ c -   C W d.V.M.M.M.M.M.M.M.h.a.T       . . . w <X<X<X<X:X;X",
"<X,X<X<X<X:X;X:X:X;X;X,X; . : x r.t.t.j j 4 3 Y d.f.M.M.M.M.M.M.l.j.! V M     + - - ; a 2.4.1X<X;X;X",
"<X,X;X:X:XoX;X<X,XoX;X;X: . - i % . =   X C R h.M.M.M.M.l.l.M.j.h.R 7 @     O f } { { f   < 1X<X,X<X",
"<X>X;XoXoXoX<X<X<X:X;X>Xs q e 1 - + O   o n C ~ L L L L L L L L J ^ 4 & - O % p g h v f . : <X,XoX,X",
",X>X;XoXoX:X<X<X<X;XJ.oXp.q.| o < i e       X X X X X X X X X X X X q g g i k j p x { f . ; <X:X;X<X",
">X>X>X;X<X<X<X<X:X;XJ.;X;XXX|   < k i                               e h v j j j i h / d . ; <X:X:X<X",
",X>X>X>X>X>X,X<X;X;X>X,X,X:Xp.8.d % .   O  .6.8.q.9.9.9.0.i.9.6.]   , i j j j j j - + w 8.H.<X:X;X,X",
"<X,X>X>X>X>X<X<X;X,X<X<X,X,X;X;X] ; O O % 2.oXoX>X<X:X,X,X>X1XK. .O , i k k k k p % O w <X<X<X<X<X<X",
"<X1X>X>X>X>X<X<X>X:X,X<X<X,X:X:X,.] ) ) ] 5.+X,X1X<X<X:X1X1X1X;X6.) a , , < < , , s )  .:X,X<X,X,X<X",
"<X,X,X>X<X<X,X<X<X,X>X,X>X1X1X<X<X<X1X1X,X<X<X,X,X,X,X1X<X<X<X,X,X,X] ; O O $ O O 4.>X:X>X>X,X>X>X<X",
"<X<X<X<X<X<X<X,X,X<X,X2X1X1X<X1X<X<X,X>X<X<X<X<X1X<X,X1X,X1X,X<X<X<X4.[ ] [ ] ] ) y.<X<X,X,X1X,X1X<X"
};
