/* XPM */
static char *_3eba655c4af48bd9d082327c15c8fa3II5Us08iIzmnZvP2[] = {
/* columns rows colors chars-per-pixel */
"50 50 245 2 ",
"   c #030302",
".  c #090604",
"X  c #0D0A06",
"o  c #070B06",
"O  c #140D09",
"+  c #150D08",
"@  c #051A09",
"#  c #071406",
"$  c #151209",
"%  c #1D140B",
"&  c #171B0C",
"*  c #1B1716",
"=  c #23150C",
"-  c #241A0D",
";  c #2A1B0E",
":  c #2B1D11",
">  c #261B12",
",  c #341D15",
"<  c #09280A",
"1  c #17250C",
"2  c #0B380B",
"3  c #0C2D11",
"4  c #182912",
"5  c #093712",
"6  c #1A3A14",
"7  c #2C2514",
"8  c #342313",
"9  c #3C2A16",
"0  c #392617",
"q  c #393315",
"w  c #2F320F",
"e  c #282524",
"r  c #372C22",
"t  c #41241C",
"y  c #462B17",
"u  c #4B341C",
"i  c #473619",
"p  c #55381C",
"a  c #512D1F",
"s  c #673A1D",
"d  c #4B2921",
"f  c #432C20",
"g  c #583C22",
"h  c #4E3428",
"j  c #673C22",
"k  c #0D440D",
"l  c #0B4A0F",
"z  c #0B4414",
"x  c #0D4B11",
"c  c #0B4C1A",
"v  c #0F4319",
"b  c #184A13",
"n  c #0E5516",
"m  c #0E5C1B",
"M  c #0C531B",
"N  c #185A16",
"B  c #10470F",
"V  c #244818",
"C  c #255517",
"Z  c #0F641E",
"A  c #0F681F",
"S  c #18641B",
"D  c #1E751F",
"F  c #266C1B",
"G  c #2D721D",
"H  c #28751C",
"J  c #35721C",
"K  c #185521",
"L  c #275721",
"P  c #375828",
"I  c #0F6C23",
"U  c #0E6221",
"Y  c #0F7727",
"T  c #117426",
"R  c #107B29",
"E  c #187926",
"W  c #146922",
"Q  c #2B782A",
"!  c #397929",
"~  c #2E6E2B",
"^  c #504C09",
"/  c #65471E",
"(  c #5B4423",
")  c #524C31",
"_  c #694C27",
"`  c #674926",
"'  c #734323",
"]  c #794927",
"[  c #6A5324",
"{  c #77572C",
"}  c #7A5B31",
"|  c #6A553C",
" . c #586C2C",
".. c #6D722F",
"X. c #55504C",
"o. c #6E5B4B",
"O. c #54695A",
"+. c #75614E",
"@. c #777372",
"#. c #5B7B62",
"$. c #906A19",
"%. c #82582C",
"&. c #895C33",
"*. c #814F28",
"=. c #866331",
"-. c #8C6334",
";. c #8D6737",
":. c #936B36",
">. c #986B36",
",. c #9D7339",
"<. c #977537",
"1. c #92602F",
"2. c #A2743B",
"3. c #AA7C3D",
"4. c #A67A3D",
"5. c #B17A3D",
"6. c #9A7755",
"7. c #8F704F",
"8. c #A57C41",
"9. c #AB7D43",
"0. c #A87642",
"q. c #B47D43",
"w. c #A57F5C",
"e. c #827066",
"r. c #2E811F",
"t. c #39881F",
"y. c #1C8328",
"u. c #248B29",
"i. c #288426",
"p. c #328621",
"a. c #348A27",
"s. c #2C9229",
"d. c #399424",
"f. c #3C9E28",
"g. c #359728",
"h. c #3EA229",
"j. c #569B1A",
"k. c #7ABB1B",
"l. c #508426",
"z. c #598538",
"x. c #4A912A",
"c. c #738138",
"v. c #668D34",
"b. c #42A429",
"n. c #4AA827",
"m. c #54A52C",
"M. c #61AE1F",
"N. c #6A8E6F",
"B. c #539D62",
"V. c #A88817",
"C. c #8A853C",
"Z. c #AB853A",
"A. c #B5883D",
"S. c #B89736",
"D. c #B08B28",
"F. c #90A82E",
"G. c #B4A62E",
"H. c #A7B60D",
"J. c #C5A92B",
"K. c #CCB427",
"L. c #C7A637",
"P. c #D3B72B",
"I. c #E3BB3E",
"U. c #CEBC0C",
"Y. c #BBDC0E",
"T. c #B2D512",
"R. c #DBCA1A",
"E. c #D2C80B",
"W. c #E9DA18",
"Q. c #ECE40D",
"!. c #F3ED0B",
"~. c #FCFA03",
"^. c #F7F408",
"/. c #F6ED11",
"(. c #ECE012",
"). c #D8C321",
"_. c #E7C537",
"`. c #EDDA29",
"'. c #F9EF3A",
"]. c #CFE508",
"[. c #9A8B49",
"{. c #A98344",
"}. c #B48444",
"|. c #BD8343",
" X c #BC8B45",
".X c #BD8449",
"XX c #B68A46",
"oX c #BD9246",
"OX c #B08E54",
"+X c #9CA441",
"@X c #9B8764",
"#X c #BC966A",
"$X c #AE9B75",
"%X c #B79977",
"&X c #AE8A62",
"*X c #B1A97A",
"=X c #AAB35E",
"-X c #C18544",
";X c #C28C45",
":X c #C3874A",
">X c #C48C49",
",X c #C49147",
"<X c #C49048",
"1X c #C99B4B",
"2X c #D19C4A",
"3X c #D7A74E",
"4X c #DBAA52",
"5X c #D7A651",
"6X c #DCB047",
"7X c #E3B945",
"8X c #C29E6F",
"9X c #C8A97B",
"0X c #CCAC6A",
"qX c #F7EC45",
"wX c #445C96",
"eX c #797682",
"rX c #827F8B",
"tX c #0788B4",
"yX c #63A0A0",
"uX c #14B6EA",
"iX c #8F8E95",
"pX c #B3AD8E",
"aX c #B6B3AF",
"sX c #9FA89A",
"dX c #CBAB85",
"fX c #D5B48C",
"gX c #DBBB93",
"hX c #D0B58F",
"jX c #ABC9B0",
"kX c #DAC296",
"lX c #E3C797",
"zX c #D7CDA4",
"xX c #EDD3AA",
"cX c #F5DBB3",
"vX c #ECD1A7",
"bX c #F9E4BB",
"nX c #FCE6A4",
"mX c #8195C2",
"MX c #80CED8",
"NX c #D1D1D1",
"BX c #E3DFDD",
"VX c #FCE9C6",
"CX c #F6E9D5",
"ZX c #FCF8F0",
"AX c #E3E8F1",
/* pixels */
":X>X,X,X,X,X:X,X,X>X>X,X}.9.>.*.{ ! Q C C J m.m.m.m.m.m.a.Q c..X-X,X-X>X,X>X,X,X,X>X>X,X<X>X>X<X<X<X",
":X>X,X>X:X>X,X>X:X:X>X<XXX}.>.*.[ J E N b F n.n.b.x.n.b.u.i.v.{.XXXXXX X-X-X|.|.>X,X;X1X<X>X<X<X;X-X",
"<X,X,X;X-X;X,X:Xq.}.,X2XP.P.G.>.;.....a.H H H J f.b.b.b.g.s.x.O.z.z.c.[.:X;X>X,X>X,X>X>X:X>X>X-X-X-X",
">X<X,X-X;X>X;X.X{.3.1X4X`./.R.S.{.4.[.v.b.r.k S a.b.b.b.h.h.s.y.R R Q C.;XoX;X,X,X>X:X:X:X-X-XA.-X;X",
",X>X,X-X;X XXXA.K.K.L.1XL.P.P.,XoXoXoX+X+Xm.F H H r.f.h.h.b.h.s.s.s.a.z.c.....:.,X,X;X>X:X X-X;X;X,X",
">X,X>X-X;X X{.S.Q.~.G.9.{.8.oX5X4X4X4X4X5X+Xb.i.N S p.n.b.h.h.h.h.b.h.u.E N b  .|.-X>X,X-X-X;X>X,X,X",
",X,X:X|.|. XS.P.!.~.K.}.{.}. X1X5X7X7XI.7XG.h.p.N N p.h.b.b.h.h.b.b.g.u.T S n  .<.0.-X<X;X;X,X>X,X,X",
",X<X:X}.{.J.Q.~.~.~._.4X4X4X1X{.S.(.~.^.^.T.h.s.N N p.b.b.h.b.b.h.h.f.u.R T T Z b  .4.;X,X,X>X:X>X>X",
",X>X:Xq.9.J.!.~.^./._.4X5X1X X9.S.Q.~.^.Q.T.h.r.N N t.b.d.t.d.d.d.g.g.y.Y R Y A k ) =.3. X,X,X:X:X,X",
",X>X:X}.9.J.!.^._._.7X4X|.1.>.2.D.Q.^.K.G.F.h.r.N N r.b.H N N N S y.y.y.R R Y Z k 6 w i ,.,X<X:X:X>X",
",X:X>XXX}.J.Q.W.4X4X4X5X5.*.&.0.S.W.Q.S.,.C.h.g.N N r.d.F l l k n Y R R R R Y Z k < # $ =.,X:X:X:X,X",
",X>X,X;X-XA.$.V.XXXXXX.X&X&X#X8X8XG.G.Z.Z.G.Y.H.j.H F F H r.D S I R R R R R R Y A k # % :.,X>X:X>X,X",
":X:X,X<X>X5.] *.,.8.8.8.#XdXfXfXdXOX2.8.{.J.~.Y.M.r.N k r.h.s.y.R R R R R R R R R c @ % :.oX;X,X>X>X",
":X:X<X<X>X}.>.>.9.}.} _ 6.dXgXlXlX8XOXL.K.K.R.F.n.r.D Z H H D Y R R R R R R R R R c @ % -.oX;X;X>X>X",
">X:X<X<X,X;X X;X:X.Xu > +.9XlXVXbXgX0X'.!.R.Z.c.a.Y Y Y n l Z Y R R R R R R R R R c @ % ;.,X;X>X,X,X",
"<X>X>X>X>X,X,X,X,X.Xi $ ) @X%X$X*XkXlX'.^.R.{.7.v.a.i.Y n l n Z I R R R R R R R R n < 1 ` =.2.,X-X-X",
"<X,X>X:X>X<X,X;X>XXXf O d | h e ) hXxXqX/.R.{.XX1X+Xx.R M z c z n Y R R R R R R R Z z 2 & - [ ,X-X-X",
"<X,X,X<X<X,X,X XA.3.h > d j h e ) zXnXqX/.R.{.XX1X+Xz.Q L L L L L T Y T Y Y R R R A x 2 # O ( ,X-X>X",
"<X,X>X<X,X,X,X<.0 - 7.%XeXwXeXNXBXVXcX0XA.oX3XA.1.7.&XdXkXzXzXzXpXS l x n A R R Y Z n 2 # X ( 1X,X<X",
",X,X<X,X,X>X,X:.- X e.hXrXwXmXAXZXVXxX#X8..X7X|.*.&.#XgXcXVXbXbXhXC 2 2 k m Y Y R Z l 2 & = ` <X:X<X",
",X,X,X<X:X>X,X:.- . e.dXrXwXmXAXZXVXxX&X&.D.W.J.$.:.pXxXbXbXkX0X[.4 @ @ < 2 n A R M < 1 ( } ,.,X>X>X",
",X<X>X:X:X:X;X:.- o 7.dXrXwXmXAXZXVXxX0.] V.~.U.$.7.hXCXbXbX9X{.} $       < k n R c @ % :.,X;X,X<X,X",
"<X,X>X:X:X:X-X0.{ ` o.o.@.rXaXBXCXVXxX6.] V.~.R.D.@XsXMXpX9X7.) y X $ i ( w < 2 m 2 @ - -..X:X,X<X>X",
",X<X<X<X:X:X-X|.q.5.i 7 o.pXlXcXbXbXxX6.] V.~.W.I.*XyXuXyX8.( = + # 7 } ,.( $ < k < # - -.:X:X>X<X<X",
",X,X,X,X,X>X>X:XA.|.` t | 6.dXvXcXcXlX&X;.D.E.R._.=XyXtXO.{ ( q q ^ ^ >.5.{ 9 w 2 4 7 u 2.>X>X:X>X,X",
",X,X>X,X<X,X,X>X>X>X:Xq.` * h pXfXfXhXfXfX&X*.V.Q.H.^     X } 1XI.!.Q.P.,X;X}.[   u ,.;X;X>X>X>X>X:X",
",X<X<X,X,X,X,X,X,X;XZ.:.u $ h w.$X$X*X$X$X7.p $.E.H.^   # 1 [ Z.S.E.U.L.,X,X X%.; _ 4.;X,X,X,X,X<X:X",
",X<X<X,X,X-X-X,X;X X` 8 $ X @ e q P P P P q $ ` S.D.u   v U v w q q ^ :.;X-X|.4.1.2.A.-X,X,X,X,X<X>X",
",X,X,X>X,X-X-X;X3.2.i % * e * o o 2 2 l z <   i 8.8.q o c I 6 & % % 0 &.-X|.-X-XA.-X:X-X,X,X>X>X,X<X",
",X,X,X-X;X,X,X2.p t y p @.sX@.* o 2 l m I 5   6 ~ ~ 4 o @ 3 ) } &.&.1.5.|.-X-X:X:X:X:X<X>X>X>X>X<X<X",
",X,X>X-X X<X,X:.=   d *.pXNXiXe # 2 l I R c X 3 U U 3 o   X ( 4..X:X-X-X:X:X:X:X>X:X:X<X,X,X>X,X,X<X",
",X,X,X<X,X;X;X1.=   a j +.e.O.K z M Z I R L , V W Q #.@.e X 9 g *.q.:X:X:X:X:X:X:X:X:X,X,X<X:X,X,X,X",
"-X-X,X,X<X:X:X-.: X y s y & 6 E y.y.Y Y Y F s ) ! B.jXBXX.X     , 0.q.q.:X:X:X-X-X-X;X,X,X>X>X,X<X<X",
"-X;X,X;X<X:X:X0.` i i y w 6 J j.j.y.Y y.R L u ) N.N.sXaXX.= X   * _ &.0.:X-X-X|.-X-X-X>X>X,X,X,X:X>X",
"1X>X,X,X,X<X:X.Xq.3.i $ N t.F.].T.t.R R R M X O.zXaXe.) a t = .   O 0 &.;X X X;X>X,X,X>X>X,X,X,X>X>X",
";X,X,X,X,X,X,X>X:X}.i $ C d.k.Y.T.l.G ~ ~ b % X.iXiXo.a a a , = $   = ` >.Z.;X,X>X,X,X,X-X-X>X>X,X;X",
",X,X;X-X,X,X>X<X,X Xi # C d.n.M.j.[ / / / s s u r e r d j j s s y O   + 8 {  X,X,X,X>X,X-X-X<X<X,X;X",
">X,X-X-X;XA.,.>.,.>.9 # b p.h.h.x. .[ [ [ [ [ i 4 * > t j j *.*.` = + . = _ }.,X,X<X:X>X,X,X:X>X>X;X",
">X,X,X,X,X>.i y y q $ o l E s.h.b.l.l.l.l.l.l.! W 6 4 * a j 0.&X6.j t % % _ |.;X,X,X<X,X,X,X>X>X,X;X",
",X,X,X,X;X=.$           z T y.h.b.b.b.b.b.b.b.s.y.U <   a ] w.9X8X*.a ; % _ |.;X,X<X,X,X,X,X,X,X;X;X",
",X>X,X=./ p y y 0 y +   @ 3 m i.s.h.b.b.b.b.b.d.g.Q U z 7 , h ) ) g a % = _ q.,X,X<X,X>X:X<X,X,X-X-X",
",X,X-Xs + , s j s s ; . . . 5 U E g.b.f.b.f.b.f.h.s.y.I < . X O = t 0 % ; [ -X,X,X,X,X>X:X:X,X,X>X>X",
",X:X-Xp + = s j s s , + O O 3 c m F G G G G G G G F K M @ o . O = , 8 9 p =.-X,X,X;X-X;X:X>X,X;X-X>X",
":X:X-Xp + = s s a a t a d d , .                             > d , X ; =.,X>X>X,X,X;X-X;X>X,X,X;X-X,X",
":X:X:X_ 7 0 a p d d d d d d , .   - : : : : : : ; : : : X   = , , , y -.-X-X:X,X,X,X,X-X>X,X,X,X;X,X",
",X:X:Xq.0.] - = t d d d d d , . - } ,.,.,.,.,.,.,.,.<.<.8   . X , ;.0.q.-X-X>X,X,X,X,X-X-X,X,X,X-X>X",
",X>X:X:X.X-.7 > , t t t t f , = y ,.,X,X;X-X:X|.:X,X;X X( - - - i A.:X:X>X<X,X<X>X>X>X,X,X,X,X,X,X,X",
">X>X:X:X:Xq.>.] , O O O O O f %.>.}.:X:X-X|. X:X,X,X,X;X,.:.:.:.,.XX,X>X<X<X<X>X>X:X:X,X,X,X,X:X>X,X",
",X>X>X:X,X,X>X<.8 X O O O O ( 3.;X,X>X<X>X,X,X<X>X>X>X<X,X,X,X>X>X>X,X<X>X,X>X<X,X>X:X>X:X:X>X:X:X,X",
",X,X,X,X,X>X,X3.{ _ _ _ ` ` =.XX,X,X;X;X<X,X,X,X<X<X>X<X>X<X>X<X,X;X<X>X>X<X>X>X>X>X1X;X>X>X,X>X,X,X"
};
