/* XPM */
static char *result[] = {
/* columns rows colors chars-per-pixel */
"50 50 235 2 ",
"   c #020403",
".  c #050807",
"X  c #0C0C0D",
"o  c #070A09",
"O  c #161918",
"+  c #0F1511",
"@  c #2A1D1C",
"#  c #18251E",
"$  c #21241F",
"%  c #261829",
"&  c #1C2C23",
"*  c #1B2522",
"=  c #0D302D",
"-  c #242422",
";  c #2C2522",
":  c #242924",
">  c #282C29",
",  c #342624",
"<  c #253E31",
"1  c #2D3930",
"2  c #313232",
"3  c #383A39",
"4  c #332F34",
"5  c #4D3D3C",
"6  c #493434",
"7  c #553C3B",
"8  c #412524",
"9  c #653C3A",
"0  c #743938",
"q  c #264133",
"w  c #2C4A3A",
"e  c #2A4537",
"r  c #314C3D",
"t  c #3D403F",
"y  c #34503F",
"u  c #59403F",
"i  c #4D413F",
"p  c #60403F",
"a  c #3E3045",
"s  c #413446",
"d  c #355846",
"f  c #374C43",
"g  c #39614C",
"h  c #3E6952",
"j  c #3C6651",
"k  c #37725E",
"l  c #444947",
"z  c #5B4746",
"x  c #4C5451",
"c  c #5C5C5C",
"v  c #525554",
"b  c #494955",
"n  c #664747",
"m  c #795656",
"M  c #714E4D",
"N  c #406D56",
"B  c #44735A",
"V  c #5B635F",
"C  c #62615C",
"Z  c #5D6360",
"A  c gray39",
"S  c #777978",
"D  c #756973",
"F  c #725D79",
"G  c #933F3D",
"H  c #FA6B34",
"J  c #FA7A37",
"K  c #F77130",
"L  c #8A5151",
"P  c #B25048",
"I  c #A8635A",
"U  c #BA655E",
"Y  c #9C7672",
"T  c #9A6F6A",
"R  c #A66C65",
"E  c #AD726C",
"W  c #D86B56",
"Q  c #F67A48",
"!  c #F57A56",
"~  c #EA7051",
"^  c #D77A68",
"/  c #D57A73",
"(  c #EE7D65",
")  c #D35E5A",
"_  c #7BD53E",
"`  c #6ABD5E",
"'  c #528A6C",
"]  c #589575",
"[  c #569374",
"{  c #4F876A",
"}  c #7B817E",
"|  c #59B867",
" . c #54B16F",
".. c #65B766",
"X. c #62AE7B",
"o. c #58C55B",
"O. c #6DC752",
"+. c #6FCB4B",
"@. c #FD841C",
"#. c #F89A1E",
"$. c #F2A81D",
"%. c #E8B71E",
"&. c #F2B41C",
"*. c #EDAB1E",
"=. c #FA8829",
"-. c #F79625",
";. c #FB8936",
":. c #FA9733",
">. c #DFBE20",
",. c #ECAA22",
"<. c #F4A721",
"1. c #EBAE2C",
"2. c #DBBA1F",
"3. c #86D637",
"4. c #96D636",
"5. c #93D435",
"6. c #BACE29",
"7. c #A8D62B",
"8. c #B5D427",
"9. c #A8D231",
"0. c #BECE3C",
"q. c #D8C71F",
"w. c #CDD21F",
"e. c #E0C11F",
"r. c #C8C925",
"t. c #D6C522",
"y. c #C6D322",
"u. c #C7D034",
"i. c #E4C02E",
"p. c #A8807E",
"a. c #F78649",
"s. c #F88D59",
"d. c #D3887C",
"f. c #CE8478",
"g. c #EB866C",
"h. c #F38565",
"j. c #E68876",
"k. c #F38974",
"l. c #F39172",
"z. c #F6B860",
"x. c #87CB45",
"c. c #8DCA53",
"v. c #BBD471",
"b. c #E4D163",
"n. c #C4DC69",
"m. c #775687",
"M. c #795E91",
"N. c #7B6984",
"B. c #7C798C",
"V. c #5778B3",
"C. c #6578BB",
"Z. c #7B6FA0",
"A. c #7D5DD8",
"S. c #5C67C5",
"D. c #6769C8",
"F. c #7A68D4",
"G. c #7D76D0",
"H. c #886795",
"J. c #8E4EA0",
"K. c #8D52A7",
"L. c #946CB2",
"P. c #A95EDF",
"I. c #8B66DA",
"U. c #956BCF",
"Y. c #A36DC5",
"T. c #AE77DE",
"R. c #8B53E6",
"E. c #9753E1",
"W. c #AC5EE0",
"Q. c #8F68E4",
"!. c #A976E4",
"~. c #AE70E5",
"^. c #8D5CC2",
"/. c #4A9B8C",
"(. c #549B8B",
"). c #409990",
"_. c #508F9A",
"`. c #4CA481",
"'. c #54A382",
"]. c #66AE88",
"[. c #6AB48D",
"{. c #66B38E",
"}. c #66B590",
"|. c #5085A6",
" X c #658EAD",
".X c #63A1A4",
"XX c #7088CE",
"oX c #78A0CD",
"OX c #969A97",
"+X c #888C8B",
"@X c #AF8C8B",
"#X c #9DA19F",
"$X c #87BD8A",
"%X c #9495AC",
"&X c #AAACAB",
"*X c #A3A6A4",
"=X c #AFB3B1",
"-X c #BABBBB",
";X c #B4B6B5",
":X c #AEB1AF",
">X c #A1A2BD",
",X c #C88D8C",
"<X c #D48783",
"1X c #CC9797",
"2X c #D89788",
"3X c #EF9184",
"4X c #F3A98E",
"5X c #F0A7A1",
"6X c #D0B4B3",
"7X c #9ACB9B",
"8X c #EBC7B3",
"9X c #E2E3A2",
"0X c #DDD6A1",
"qX c #918CDA",
"wX c #B08DCF",
"eX c #ACAED8",
"rX c #9FAEE6",
"tX c #94ADD9",
"yX c #C28DE4",
"uX c #C28BDA",
"iX c #BAC8D9",
"pX c #CBCCCC",
"aX c #C4C6C6",
"sX c #D4D4D4",
"dX c #DCDCDC",
"fX c #D5DAD6",
"gX c #D0CED0",
"hX c #ECD7C7",
"jX c #E6DAD8",
"kX c #E6E4D4",
"lX c #D9DCE5",
"zX c #C6CDE8",
"xX c #DDE0E2",
"cX c #E1E1E1",
"vX c #DAE7CE",
/* pixels */
"[.[.[.[.[.[.[.[.[.[.[.[.[.[.[.[.[.[.[.[.[.[.[.[.[.[.[.[.[.[.[.[.[.[.[.[.[.[.[.[.[.[.[.[.[.[.[.[.[.[.",
"[.[.[.[.[.[.[.[.[.[.[.[.[.[.[.[.[.[.[.[.[.[.[.[.[.[.[.[.[.[.[.[.[.[.[.[.[.[.[.[.[.[.[.[.[.[.[.[.[.[.",
"[.[.[.[.[.[.[.[.[.[.[.[.[.[.[.[.[.[.[.[.[.[.[.[.[.[.[.[.[.[.[.[.[.[.[.}.[.[.[.[.[.[.[.[.[.[.[.[.[.[.",
"[.[.[.[.[.[.[.[.[.[.[.[.[.[.[.[.[.[.[.[.[.[.[.[.[.[.[.[.[.[.[.[.[.[.[.[.[.[.[.[.[.[.[.[.[.[.[.[.[.[.",
"[.[.[.[.[.[.[.[.[.[.[.[.[.[.[.[.[.[.[.[.[.[.[.[.[.[.[.[.[.[.[.[.[.[.[.[.[.[.[.[.[.[.[.[.[.[.[.[.[.[.",
"[.[.[.[.[.[.[.[.[.[.[.[.[.[.[.[.[.[.[.[.[.[.[.[.[.[.[.[.[.[.[.[.[.[.[.[.[.[.[.[.[.[.[.[.[.[.[.[.[.[.",
"[.[.[.[.[.[.[.[.[.[.[.[.[.[.[.[.[.[.[.[.[.[.[.[.[.[.[.[.[.[.[.[.[.[.[.[.[.[.[.[.[.[.[.[.[.[.[.[.[.[.",
"[.[.[.[.[.[.[.[.[.[.[.[.[.[.[.[.[.[.[.[.[.[.[.[.[.[.[.[.[.[.[.[.[.[.[.[.[.[.[.[.[.[.[.[.[.[.[.[.[.[.",
"[.[.[.[.[.[.[.[.[.[.[.[.[.[.[.[.].[.N O . . . . X o . . . . w [.[.[.[.[.[.[.[.[.[.[.[.[.[.[.[.[.[.[.",
"[.[.[.[.[.[.[.[.[.[.[.}.[.[.[.[.[.[.x O @ 6 6 6 6 6 6 5 6 - r [.[.{.[.[.[.[.[.[.[.[.[.[.[.[.[.[.[.[.",
"[.[.[.[.[.[.[.[.[.[.[.[.[.[.}.d # # + $ m @X,X,X,X,X,X1X@XM $ O # & g [.[.[.[.[.[.[.[.[.[.[.[.[.[.[.",
"[.[.[.[.[.[.[.[.[.[.[.[.[.[.}.y $ i n M U g.l.h.l.h.k.3X2XE n z i ; r }.[.[.[.[.[.[.[.[.[.[.[.[.[.[.",
"[.[.[.[.[.[.[.[.[.[.[.[.d & & : n E d./ ~ Q H K H H H J h.g.<X,XY z ; & : : g [.[.].[.[.[.[.[.[.[.[.",
"[.[.[.[.[.[.[.[.[.[.[.d , 5 n M U g.( ! J =.K @.@.@.@.K J Q ( k.d.R m M i $ q [.[.[.[.[.[.[.[.[.[.[.",
"[.[.[.[.[.[.[.[.[.[.r $ z R f./ ( Q H K @.*.$.&.&.&.&.$.#.K H ! ( j.d.,XY 5 $ r [.[.[.[.[.[.[.[.[.[.",
"[.[.[.[.[.[.[.[.[.r ; 9 I ^ ( h.;.=.=.#.*.q.w.w.w.w.w.q.%.#.-.=.a.a.h.l.f.T z $ w [.[.[.[.[.[.[.[.[.",
"[.[.[.[.[.[.[.[.y ; 7 I W Q J =.-.<.%.e.r.9.5.5.5.4.4.9.6.t.%.<.-.=.J a.h.d.T i & y [.[.[.].[.[.[.[.",
"[.[.[.[.[.[.[.y > u I W a.=.#.#.,.t.y.8.5.O.o.o.o.o.o.+.x.7.y.q.%.<.-.=.a.l.f.p.v $ y [.[.[.[.[.[.[.",
"[.[.[.[.[.[.y $ u I f.a.;.,.%.q.r.9.4.x...(.).).).).).`...+.4.9.y.t.e.,.-.a.l.2XY u $ y [.[.[.[.[.[.",
"[.[.[.[.[.[.t n I g.a.:.,.t.8.7.x.O.| X._.V.S.S.S.S.S.V. X'.X.O.x.9.6.y.2.:.a.l.d.T u q [.[.[.[.[.[.",
"[.[.[.[.[.g 2 L ^ Q ;.<.q.7.3._ ..(._.V.S.F.R.R.R.R.R.A.D.V._./...+.3.7.r.*.:.a.h.f.m 3 }.}.[.[.[.[.",
"[.[.X.[.g # 8 P W ;.-.%.w.5._ o.(.V.S.D.I.E.W.W.W.P.P.P.I.F.D.V._. .O.3.8.>.#.=.! f.L , r g [.[.[.[.",
"[.[.].[.1 ; 0 P ~ =.$.e.7.+.| /. XF.Q.I.^.K.K.K.J.J.K.Y.~.~.Q.G. X_. .O.5.r.*.K H ~ R z ; & [.[.[.[.",
"[.[.[.[., 9 I W J -.%.y.3.| /.C.I.wX~.Y.m.a % % % % a m.Y.wXT.!.U.D._. .x.6.2.-.;.~ ^ R i : [.[.[.[.",
"[.[.[.g ; G W Q ;.<.e.7.+.`.V.A.T.uXY.m.a X < B B B f 4 F H.H.Y.T.I.C.(.` 5.r.<.=.J g.f.n O j [.[.[.",
"[.[.d O , G ) J -.&.y.3. .).S.E.T.wXH.4 X < ] ].[.[.g X % % s J.T.~.F.V. .x.9.2.-.J ! ^ m $ # d [.[.",
"[.[.# , p P H =.<.e.7.o.`.|.A.P.Y.H.a X < [ [.[.[.[.] B B e % m.uXT.I.V.(.` 4.2.&.=.a.( U n ; * [.[.",
"[.[.$ 9 ) W Q :.i.u.c. ._.D.Q.U.H.s X < [ [.[.[.[.[.[.[.[.N O D wXyX!.G. XX.c.0.1.1.a.! j.@X5 # [.[.",
"[.[.- 0 W ( s.z.b.n.c..XXXG.^.M.b O < ] [.].[.[.[.[.[.[.[.N X 3 H.wXwX!.XX.X$Xn.b.z.s.h.3X<Xn * [.[.",
"[.[.* 0 ) k.4X0X9X9XiXoXXXqXZ.b - e ] [.].[.[.[.[.[.[.[.[.] 1 X 3 N.>XqXqXoX7XaX9X9X4Xl.3X/ p * [.[.",
"[.[.* 0 / 5X5XhXkXvXpXrXrXtXB.2 . N [.[.[.[.[.[.[.[.[.[.[.[.N   + s D qXrXrXiXfXkXhX8X5X5X,Xz # [.].",
"[.[.> L 1XhXhXkXcXxXlXzXzXeXB.% < ] [.[.[.{.[.[.[.[.[.[.[.[.] <   O b %XiXlXlXcXkXjXhXhX6X@Xi O [.[.",
"k j > D 6XjXcXcXcXcXlXlXlXaX+X> e g g [ [.[.[.[.[.[.[.[.' d g q o O x OXsXlXlXcXcXcXjXpX#XC > X d g ",
"= * l OXpXcXcXcXcXcXcXcXcXsX#XZ s 3 O B [.[.[.[.[.[.[.[.N + 3 3 l x } =XfXcXxXxXcXcXcXpXOXC i 2 + . ",
"= x OX-XfXcXcXcXcXlXjXlXjXdXaX=X*X+X2 N [.[.[.[.[.[.[.[.h 2 +XOX*X&X;XgXdXjXlXdXlXcXcXdXaX&X#X} 2   ",
"= Z ;XfXdXdXdXdXdXsXfXdXdXdXlXdXsX-Xl g [.[.[.[.[.[.[.[.g 2 OX-XgXfXdXxXdXdXdXdXdXdXdXdXfXfXgX:Xl   ",
"= x &XpXsXsXsXsXsXsXsXsXfXsXgXaXaX&Xl N [.[.[.[.[.[.[.[.N + x OX-XgXsXfXfXsXsXsXsXsXsXfXsXsXpX&Xl . ",
"= a S *XaXsXsXsXsXsXsXsXsXpX:XS A v $ j [.[.[.[.[.[.[.[.' & + x +X=XpXsXsXgXsXsXsXsXsXpXaX-X#XS : . ",
"d # < D &X-X-X;X-X-X-X;X-X&XD O & w w ' [.[.[.[.[.[.[.[.[.' & X t } &X-X-X-XaX-X-X-X;X;X&X+XV :   + ",
"{.g + 2 v c c c c c c c c v O   B [.[.[.[.[.[.[.[.[.[.[.[.{.{ & X 3 x V Z Z C A C c c V v l *   e N ",
"[.[.w e < e < e 1 < < q q q q q ' [.[.[.[.[.[.[.[.[.[.[.}.}.[.' q q q q q q q e q q q q q q q e [.[.",
"[.[.[.[.[.[.[.[.[.[.[.[.[.[.[.[.[.[.[.[.[.[.[.[.[.[.[.[.[.[.[.[.[.[.[.[.[.[.[.[.[.[.[.[.[.[.[.[.[.[.",
"[.[.[.[.[.[.[.[.[.[.[.[.[.[.[.[.[.[.[.[.[.[.[.[.[.[.[.[.[.[.[.[.[.[.[.[.[.[.[.[.[.[.[.[.[.[.[.[.[.[.",
"[.[.[.[.[.[.[.[.[.[.[.[.[.[.[.[.[.[.[.[.[.[.[.[.[.[.[.[.[.[.[.}.}.[.[.[.[.[.[.[.[.[.[.[.[.[.[.[.[.[.",
"[.[.[.[.[.[.[.[.[.[.[.[.}.[.[.[.[.[.[.[.[.[.[.[.[.[.[.[.[.[.[.[.[.[.[.[.[.[.[.[.}.[.[.[.[.[.[.[.[.[.",
"[.[.[.[.[.[.[.[.[.[.[.[.[.[.[.[.[.[.[.[.[.[.[.[.[.[.[.[.[.[.[.[.[.[.[.[.[.[.[.[.[.[.[.[.[.[.[.[.[.[.",
"[.[.[.[.[.[.[.[.[.[.[.[.[.[.[.[.[.[.[.[.[.[.[.[.[.[.[.[.[.[.[.[.[.[.[.[.[.[.[.[.[.[.[.[.[.[.[.[.[.[.",
"[.[.[.[.[.[.[.[.[.[.[.[.[.[.[.[.[.[.[.[.[.[.[.}.[.[.[.[.[.[.[.[.[.[.[.[.[.[.[.[.[.[.[.[.[.[.[.[.[.[.",
"[.[.[.[.[.[.[.[.[.[.[.[.[.[.[.[.[.[.[.[.[.[.[.[.[.[.[.[.[.[.[.[.[.[.[.[.[.[.[.[.[.[.[.[.[.[.[.[.[.[.",
"[.[.[.[.[.[.[.[.[.[.[.[.[.[.[.[.[.[.[.[.[.[.[.[.[.[.[.[.[.[.[.[.[.[.[.[.[.[.[.[.[.[.[.[.[.[.[.[.[.[."
};
